<svg width="64" height="64" viewBox="0 0 64 64" fill="none" xmlns="http://www.w3.org/2000/svg">
<path d="M23.458 4.67186L24.4 4.33786L24.113 3.52686L23.268 3.68986L23.458 4.67186ZM38.472 4.86386L38.686 3.88686L37.846 3.70186L37.538 4.50486L38.472 4.86386ZM53.139 22.8899L53.015 23.8829L53.139 22.8909V22.8899ZM47 47.9979C46.7348 47.9979 46.4804 48.1032 46.2929 48.2907C46.1054 48.4783 46 48.7326 46 48.9979C46 49.2631 46.1054 49.5174 46.2929 49.705C46.4804 49.8925 46.7348 49.9979 47 49.9979V47.9979ZM51 48.9979H52C52 48.7326 51.8946 48.4783 51.7071 48.2907C51.5196 48.1032 51.2652 47.9979 51 47.9979V48.9979ZM45 43.9979C45.2652 43.9979 45.5196 43.8925 45.7071 43.705C45.8946 43.5174 46 43.2631 46 42.9979C46 42.7326 45.8946 42.4783 45.7071 42.2907C45.5196 42.1032 45.2652 41.9979 45 41.9979V43.9979ZM41 42.9979H40C40 43.2631 40.1054 43.5174 40.2929 43.705C40.4804 43.8925 40.7348 43.9979 41 43.9979V42.9979ZM50.93 45.1629C50.974 45.4245 51.1202 45.6579 51.3363 45.8118C51.5525 45.9657 51.8209 46.0274 52.0825 45.9834C52.3441 45.9393 52.5776 45.7932 52.7314 45.577C52.8853 45.3609 52.947 45.0925 52.903 44.8309L50.93 45.1629ZM41.07 46.8309C41.026 46.5692 40.8798 46.3358 40.6637 46.1819C40.4475 46.028 40.1791 45.9663 39.9175 46.0104C39.6559 46.0544 39.4224 46.2005 39.2686 46.4167C39.1147 46.6328 39.053 46.9012 39.097 47.1629L41.07 46.8309ZM50 52.9979C50 53.2631 50.1054 53.5174 50.2929 53.705C50.4804 53.8925 50.7348 53.9979 51 53.9979C51.2652 53.9979 51.5196 53.8925 51.7071 53.705C51.8946 53.5174 52 53.2631 52 52.9979H50ZM42 38.9979C42 38.7326 41.8946 38.4783 41.7071 38.2907C41.5196 38.1032 41.2652 37.9979 41 37.9979C40.7348 37.9979 40.4804 38.1032 40.2929 38.2907C40.1054 38.4783 40 38.7326 40 38.9979H42ZM16.476 7.82986C18.7845 6.85799 21.1877 6.12874 23.647 5.65386L23.268 3.68986C20.6725 4.19119 18.1362 4.96099 15.7 5.98686L16.476 7.82986ZM5.196 12.5799L16.476 7.82986L15.7 5.98686L4.42 10.7369L5.196 12.5799ZM7.736 21.8979L5.196 12.5799L3.266 13.1059L5.807 22.4229L7.736 21.8979ZM13.718 21.1509L7.736 21.8979L7.985 23.8819L13.966 23.1349L13.718 21.1509ZM15.118 51.9149L15.965 23.1949L13.966 23.1349L13.119 51.8549L15.119 51.9149H15.118ZM31 54.9979C25.8575 55.0024 20.7397 54.2861 15.796 52.8699L15.244 54.7919C20.3671 56.2597 25.6707 57.0023 31 56.9979V54.9979ZM53.264 21.8979L47.282 21.1509L47.034 23.1349L53.015 23.8829L53.264 21.8979ZM55.804 12.5799L53.264 21.8979L55.193 22.4239L57.734 13.1059L55.804 12.5799ZM44.524 7.82986L55.804 12.5799L56.581 10.7369L45.301 5.98686L44.524 7.82986ZM38.257 5.83986C40.397 6.30986 42.495 6.97586 44.524 7.82986L45.301 5.98686C43.1647 5.08733 40.9499 4.38442 38.686 3.88686L38.257 5.83986ZM31 4.99786C28.6005 4.99947 26.2089 4.72329 23.873 4.17486L23.415 6.12186C25.852 6.69486 28.391 6.99786 31 6.99786V4.99786ZM31 8.99786C29.6295 8.99806 28.289 8.59604 27.1447 7.84164C26.0005 7.08723 25.1028 6.01361 24.563 4.75386L22.725 5.54286C23.4192 7.16211 24.5732 8.54207 26.0442 9.51172C27.5151 10.4814 29.2382 10.9981 31 10.9979V8.99786ZM24.563 4.75386C24.5042 4.61697 24.4499 4.47823 24.4 4.33786L22.515 5.00586C22.58 5.18786 22.65 5.36586 22.725 5.54286L24.563 4.75386ZM38.127 4.17486C35.791 4.72328 33.3995 4.99945 31 4.99786V6.99786C33.609 6.99786 36.148 6.69486 38.585 6.12186L38.127 4.17486ZM37.538 4.50486C37.5063 4.58883 37.4719 4.67218 37.437 4.75486L39.275 5.54286C39.32 5.43686 39.364 5.32986 39.405 5.22186L37.538 4.50486ZM37.437 4.75486C36.8969 6.01423 35.9991 7.08743 34.8548 7.84147C33.7106 8.59551 32.3703 8.99723 31 8.99686V10.9969C34.714 10.9969 37.9 8.74786 39.275 5.54186L37.437 4.75286V4.75486ZM57.734 13.1059C57.8617 12.6382 57.8152 12.14 57.6031 11.7041C57.391 11.2681 57.0278 10.924 56.581 10.7359L55.804 12.5799L57.734 13.1059ZM53.015 23.8829C53.4929 23.9426 53.9763 23.828 54.3764 23.56C54.7765 23.2919 55.0665 22.8885 55.193 22.4239L53.264 21.8979L53.015 23.8829ZM47.034 23.1349L47.282 21.1509C46.9957 21.1151 46.7051 21.1417 46.4301 21.2288C46.1551 21.316 45.9022 21.4616 45.6887 21.6556C45.4752 21.8497 45.3063 22.0877 45.1935 22.3532C45.0806 22.6187 45.0266 22.9055 45.035 23.1939L47.034 23.1349ZM13.119 51.8549C13.08 53.1889 13.93 54.4149 15.244 54.7919L15.796 52.8699C15.5929 52.8087 15.416 52.6816 15.2932 52.5086C15.1704 52.3357 15.1088 52.1268 15.118 51.9149L13.119 51.8549ZM13.966 23.1349L15.965 23.1949C15.9736 22.9063 15.9206 22.6193 15.8078 22.3536C15.695 22.0879 15.5259 21.8498 15.3124 21.6555C15.0988 21.4613 14.8457 21.3157 14.5705 21.2286C14.2952 21.1414 14.0044 21.1149 13.718 21.1509L13.966 23.1349ZM5.807 22.4249C5.93374 22.8893 6.22379 23.2925 6.62389 23.5603C7.02398 23.8282 7.50727 23.9417 7.985 23.8819L7.736 21.8979L5.807 22.4249ZM4.419 10.7359C3.97221 10.924 3.60999 11.2681 3.3979 11.7041C3.18581 12.14 3.13829 12.6382 3.266 13.1059L5.197 12.5789L4.419 10.7359ZM58 45.9979C58 52.6259 52.627 57.9979 46 57.9979V59.9979C53.732 59.9979 60 53.7299 60 45.9979H58ZM34 45.9979C34 39.3709 39.373 33.9979 46 33.9979V31.9979C38.268 31.9979 32 38.2659 32 45.9979H34ZM46 33.9979C46.1 33.9979 46.2 33.9989 46.3 34.0019L46.349 32.0019C46.2327 31.9991 46.1163 31.9977 46 31.9979V33.9979ZM46.3 34.0019C52.789 34.1599 58 39.4699 58 45.9979H60C60 38.3829 53.92 32.1879 46.349 32.0019L46.3 34.0019ZM45.035 23.1939L45.325 33.0319L47.324 32.9719L47.034 23.1349L45.035 23.1939ZM46 57.9979C42.907 57.9979 40.089 56.8279 37.96 54.9069L36.62 56.3909C39.1901 58.7166 42.5338 60.0024 46 59.9979V57.9979ZM37.96 54.9069C36.7116 53.783 35.7139 52.4088 35.0316 50.8739C34.3493 49.339 33.9978 47.6776 34 45.9979H32C32 50.1219 33.784 53.8299 36.62 56.3909L37.96 54.9069ZM37.179 54.6549C35.151 54.8819 33.089 54.9979 31 54.9979V56.9979C33.164 56.9979 35.3 56.8779 37.401 56.6429L37.179 54.6549ZM47 49.9979H51V47.9979H47V49.9979ZM45 41.9979H41V43.9979H45V41.9979ZM49.536 49.5339C49.0717 49.9983 48.5204 50.3667 47.9137 50.6181C47.307 50.8694 46.6567 50.9988 46 50.9988C45.3433 50.9988 44.693 50.8694 44.0863 50.6181C43.4796 50.3667 42.9283 49.9983 42.464 49.5339L41.05 50.9479C41.7 51.5979 42.4717 52.1136 43.3211 52.4655C44.1704 52.8173 45.0807 52.9984 46 52.9984C46.9193 52.9984 47.8296 52.8173 48.6789 52.4655C49.5283 52.1136 50.3 51.5979 50.95 50.9479L49.536 49.5339ZM42.464 42.4629C42.9283 41.9984 43.4796 41.63 44.0863 41.3787C44.693 41.1273 45.3433 40.9979 46 40.9979C46.6567 40.9979 47.307 41.1273 47.9137 41.3787C48.5204 41.63 49.0717 41.9974 49.536 42.4619L50.95 41.0479C50.3 40.3978 49.5283 39.8821 48.6789 39.5303C47.8296 39.1784 46.9193 38.9973 46 38.9973C45.0807 38.9973 44.1704 39.1784 43.3211 39.5303C42.4717 39.8821 41.7 40.3968 41.05 41.0469L42.464 42.4629ZM49.536 42.4619C50.271 43.1944 50.7584 44.1395 50.93 45.1629L52.903 44.8329C52.6627 43.3984 51.9798 42.075 50.95 41.0479L49.536 42.4619ZM42.464 49.5339C41.729 48.8014 41.2415 47.8563 41.07 46.8329L39.097 47.1629C39.3373 48.5973 40.0202 49.9207 41.05 50.9479L42.464 49.5339ZM50.167 48.7629C49.987 49.0349 49.777 49.2939 49.536 49.5339L50.95 50.9479C51.2794 50.6187 51.5751 50.2576 51.833 49.8699L50.167 48.7629ZM50 48.9979V49.3169H52V48.9979H50ZM50 49.3169V52.9979H52V49.3169H50ZM41.833 43.2329C42.013 42.9619 42.222 42.7029 42.464 42.4629L41.05 41.0469C40.715 41.3819 40.421 41.7439 40.167 42.1259L41.833 43.2329ZM42 42.9979V42.6789H40V42.9999H42V42.9979ZM42 42.6789V38.9999H40V42.6789H42Z" fill="#1C2024"/>
</svg>
